<svg xmlns="http://www.w3.org/2000/svg" viewBox="0 0 35 33" width="35" height="33">
  <path fill="#E2761B" d="M32.958 1l-13.134 9.718 2.442-5.727L32.958 1z" />
  <path fill="#E4761B" d="M2.042 1l13.01 9.809-2.317-5.818L2.042 1zm26.11 22.368l-3.604 5.502 7.708 2.126 2.21-7.496-6.313-.132zm-27.713.132l2.21 7.496 7.708-2.126-3.604-5.502-6.314.132z" />
  <path fill="#E4761B" d="M9.916 14.47l-2.084 3.138 7.42.34-.247-7.968-5.09 4.49zm15.167 0l-5.134-4.58-.17 8.058 7.41-.34-2.106-3.138zm-7.496 13.9l.01-2.6-.247-.247h-4.91l-.224.247.023 2.6-2.317-1.096 1.625 1.332 1.647 1.14h3.423l1.659-1.14 1.625-1.332-2.317 1.096z" />
  <path fill="#D7C1B3" d="M17.692 28.508l-.247-2.105h-4.257l-.236 2.105-.1 1.683.224-.247h4.91l.236.247-.12-1.683z" />
  <path fill="#233447" d="M17.95 20.84l-2.33-.669h-3.287l-2.33.669-1.278 2.825 2.317-1.096h5.835l2.317 1.096-1.244-2.825z" />
  <path fill="#CD6116" d="M33.756 11.125L34.897 5.8l-1.938-4.8-9.133 6.76 3.513 2.96 4.956 1.445 1.096-1.276-.473-.34.764-.694-.586-.453.764-.582-.473-.34-.58-.356zm-33.513.001l.584-.356-.473.34.764.582-.586.453.764.694-.473.34 1.085 1.276 4.956-1.445 3.513-2.96-9.133-6.76-1.94 4.8 1.142 5.326-.203.001z" />
  <path fill="#E4761B" d="M31.296 15.34l-4.956-1.445 1.5 2.262-2.24 4.324 2.94-.035h6.313l-3.557-5.107zm-21.637-1.445L4.704 15.34 1.17 20.447h6.301l2.928.035-2.24-4.324 1.5-2.262zm6.695-.68l.315-5.47 1.423-3.85h-6.178l1.4 3.85.338 5.47.113 1.73.01 4.29h2.33l.022-4.29.227-1.73z" />
</svg>