<svg xmlns="http://www.w3.org/2000/svg" viewBox="0 0 32 32" width="32" height="32">
  <circle cx="16" cy="16" r="16" fill="#3B99FC"/>
  <path fill="#fff" d="M9.58 13.702c3.541-3.67 9.302-3.67 12.843 0l.426.44c.178.184.178.483 0 .668l-1.454 1.506c-.89.092-.233.092-.323 0l-.587-.607c-2.47-2.559-6.476-2.559-8.945 0l-.629.651c-.9.092-.233.092-.323 0l-1.454-1.506c-.178-.184-.178-.483 0-.668l.447-.485zm15.854 3.109l1.293 1.338c.178.185.178.484 0 .668l-5.833 6.04c-.178.184-.465.184-.642 0l-4.14-4.287c-.044-.046-.117-.046-.162 0l-4.139 4.287c-.178.184-.465.184-.643 0l-5.833-6.04c-.177-.184-.177-.483 0-.668l1.293-1.338c.178-.184.465-.184.643 0l4.14 4.287c.044.046.117.046.161 0l4.14-4.287c.178-.184.465-.184.642 0l4.14 4.287c.045.046.117.046.162 0l4.139-4.287c.177-.184.465-.184.642 0z"/>
</svg>